<svg width="43" height="11" viewBox="0 0 43 11" fill="none" xmlns="http://www.w3.org/2000/svg">
<path d="M4.9 10.44C3.59333 10.44 2.48667 10.14 1.58 9.54C0.673333 8.92667 0.146667 8.03333 0 6.86H1.1C1.24667 7.74 1.66667 8.4 2.36 8.84C3.06667 9.28 3.89333 9.5 4.84 9.5C5.30667 9.5 5.78 9.43333 6.26 9.3C6.74 9.16667 7.14 8.94667 7.46 8.64C7.79333 8.33333 7.96 7.94667 7.96 7.48C7.96 7.02667 7.82667 6.67333 7.56 6.42C7.30667 6.15333 6.96667 5.96 6.54 5.84C6.12667 5.70667 5.55333 5.58 4.82 5.46C4.75333 5.44667 4.67333 5.43333 4.58 5.42C4.5 5.40667 4.42667 5.39333 4.36 5.38C3.45333 5.24667 2.72667 5.1 2.18 4.94C1.63333 4.78 1.18667 4.54 0.84 4.22C0.493333 3.88667 0.32 3.43333 0.32 2.86C0.32 2.22 0.506667 1.68667 0.88 1.26C1.26667 0.82 1.76667 0.5 2.38 0.3C3.00667 0.1 3.68 0 4.4 0C5.64 0 6.67333 0.306667 7.5 0.92C8.32667 1.52 8.8 2.38667 8.92 3.52H7.84C7.73333 2.65333 7.36 2.00667 6.72 1.58C6.08 1.15333 5.30667 0.94 4.4 0.94C3.62667 0.94 2.93333 1.11333 2.32 1.46C1.70667 1.80667 1.4 2.34667 1.4 3.08C1.4 3.46667 1.51333 3.78 1.74 4.02C1.98 4.26 2.3 4.45333 2.7 4.6C3.1 4.73333 3.60667 4.84667 4.22 4.94C4.32667 4.95333 4.42667 4.97333 4.52 5C4.61333 5.01333 4.71333 5.02667 4.82 5.04C4.86 5.05333 4.9 5.06 4.94 5.06C4.98 5.06 5.02667 5.06667 5.08 5.08C5.96 5.21333 6.66667 5.36667 7.2 5.54C7.73333 5.71333 8.16667 5.97333 8.5 6.32C8.83333 6.65333 9 7.11333 9 7.7C9 8.32667 8.79333 8.84667 8.38 9.26C7.98 9.66 7.46667 9.96 6.84 10.16C6.21333 10.3467 5.56667 10.44 4.9 10.44Z" fill="white"/>
<path d="M14.4669 10.22L9.98687 0.220001H11.1469L15.1869 9.28H15.2469L19.3069 0.220001H20.4469L15.9469 10.22H14.4669Z" fill="white"/>
<path d="M24.5533 10.46C23.5533 10.46 22.7799 10.2333 22.2333 9.78C21.6866 9.31333 21.4133 8.68667 21.4133 7.9C21.4133 7.14 21.6733 6.54667 22.1933 6.12C22.7266 5.68 23.3533 5.38 24.0733 5.22C24.8066 5.04667 25.6399 4.92667 26.5733 4.86C27.4399 4.80667 28.0999 4.71333 28.5533 4.58C29.0066 4.44667 29.2333 4.20667 29.2333 3.86C29.2333 2.99333 28.9399 2.29333 28.3533 1.76C27.7666 1.21333 27.0199 0.94 26.1133 0.94C25.1933 0.94 24.4333 1.2 23.8333 1.72C23.2466 2.22667 22.8799 2.94 22.7333 3.86H21.7133C21.8066 3.06 22.0533 2.37333 22.4533 1.8C22.8533 1.22667 23.3666 0.786667 23.9933 0.48C24.6333 0.173333 25.3466 0.0199997 26.1333 0.0199997C26.9466 0.0199997 27.6599 0.186667 28.2733 0.52C28.8999 0.84 29.3866 1.3 29.7333 1.9C30.0799 2.5 30.2533 3.20667 30.2533 4.02V9.24H31.7333V10.22H29.2533V7.12C28.9466 8.12 28.3666 8.92667 27.5133 9.54C26.6599 10.1533 25.6733 10.46 24.5533 10.46ZM24.9533 9.56C25.7533 9.56 26.4799 9.38 27.1333 9.02C27.7866 8.64667 28.2999 8.15333 28.6733 7.54C29.0466 6.92667 29.2333 6.25333 29.2333 5.52L29.2533 4.64C29.0533 4.81333 28.7733 4.94 28.4133 5.02C28.0533 5.1 27.5733 5.16667 26.9733 5.22C26.9333 5.22 26.8933 5.22667 26.8533 5.24C26.8133 5.24 26.7733 5.24 26.7333 5.24C25.2666 5.34667 24.1933 5.58667 23.5133 5.96C22.8466 6.33333 22.5133 6.88667 22.5133 7.62C22.5133 8.24667 22.7333 8.72667 23.1733 9.06C23.6133 9.39333 24.2066 9.56 24.9533 9.56Z" fill="white"/>
<path d="M34.5227 10.22V0.220001H35.6027V3.26C35.8693 2.31333 36.3293 1.54 36.9827 0.94C37.6493 0.326667 38.4227 0.0199997 39.3027 0.0199997C39.996 0.0199997 40.5827 0.166667 41.0627 0.46C41.5427 0.74 41.9027 1.15333 42.1427 1.7C42.396 2.24667 42.5227 2.90667 42.5227 3.68V4.24H41.4427V3.84C41.4427 2.94667 41.2227 2.26 40.7827 1.78C40.3427 1.3 39.716 1.06 38.9027 1.06C38.3027 1.06 37.7493 1.24 37.2427 1.6C36.736 1.94667 36.336 2.42667 36.0427 3.04C35.7493 3.64 35.6027 4.3 35.6027 5.02V10.22H34.5227Z" fill="white"/>
</svg>
